<svg width="16" height="16" viewBox="0 0 16 16" fill="none" xmlns="http://www.w3.org/2000/svg">
<path d="M4.56051 0.00740315C3.85451 0.0699075 3.21812 0.545793 2.98799 1.26033L0.0872794 10.2595C-0.219554 11.2113 0.308881 12.2398 1.26063 12.5466L1.25495 12.5452L2.54479 12.987V14.1817C2.54479 15.1818 3.36301 16 4.36306 16H14.1817C15.1818 16 16 15.1818 16 14.1817V4.72648C16 3.82159 15.3295 3.0687 14.4616 2.93232L5.27646 0.0869531C5.03781 0.0102427 4.7949 -0.0139059 4.56051 0.00740214L4.56051 0.00740315ZM4.62017 0.729045C4.76223 0.71768 4.90854 0.733306 5.05201 0.780185C5.05344 0.780185 5.05486 0.780185 5.05628 0.780185L11.9259 2.90817H4.36306C3.83462 2.90817 3.36159 3.13972 3.02777 3.50339L3.67979 1.48194C3.819 1.05009 4.19686 0.765978 4.62017 0.729045H4.62017ZM4.36306 3.6355H14.1817C14.2272 3.6355 14.2712 3.64402 14.3167 3.64828L14.4204 3.68096C14.4559 3.69232 14.4928 3.698 14.5312 3.698C14.963 3.8429 15.2727 4.24349 15.2727 4.72648V14.1817C15.2727 14.7883 14.7883 15.2727 14.1817 15.2727H4.36306C3.7565 15.2727 3.2721 14.7883 3.2721 14.1817V12.8279C3.28914 12.764 3.28914 12.6986 3.2721 12.6361V4.72648C3.2721 4.11991 3.7565 3.6355 4.36306 3.6355ZM13.8181 4.36282C13.4161 4.36282 13.0908 4.68813 13.0908 5.09015C13.0908 5.49216 13.4161 5.81747 13.8181 5.81747C14.2201 5.81747 14.5454 5.49216 14.5454 5.09015C14.5454 4.68813 14.2201 4.36282 13.8181 4.36282ZM2.54479 5.00491V12.2185L1.48934 11.8577C1.48792 11.8562 1.48508 11.8562 1.48223 11.8562C0.905502 11.6687 0.592986 11.0607 0.780496 10.4826L2.54479 5.00491Z" fill="#F9FAFB"/>
</svg>
