<svg width="19" height="17" viewBox="0 0 19 17" fill="none" xmlns="http://www.w3.org/2000/svg">
<path d="M3.24 0.866669L0.119995 4.76667H2.45999V11.7867C2.45999 13.9313 4.21537 15.6867 6.35999 15.6867C8.50462 15.6867 10.26 13.9313 10.26 11.7867V5.54667C10.26 4.24525 11.2986 3.20667 12.6 3.20667C13.9014 3.20667 14.94 4.24525 14.94 5.54667V12.5667H12.6L15.72 16.4667L18.84 12.5667H16.5V5.54667C16.5 3.40205 14.7446 1.64667 12.6 1.64667C10.4554 1.64667 8.7 3.40205 8.7 5.54667V11.7867C8.7 13.0881 7.66141 14.1267 6.35999 14.1267C5.05858 14.1267 4.02 13.0881 4.02 11.7867V4.76667H6.35999L3.24 0.866669Z" fill="#F9FAFB"/>
</svg>
