<svg width="30" height="40" viewBox="0 0 30 40" fill="none" xmlns="http://www.w3.org/2000/svg">
<g opacity="0.5">
<path d="M0.852 38V29.996H2.508L6.048 34.76V29.996H7.836V38H6.372L2.64 33.116V38H0.852ZM9.53559 38V29.996H14.9836V31.496H11.4796V33.404H14.5036V34.928H11.4796V38H9.53559ZM18.0593 38V31.496H15.8153V29.996H22.2833V31.496H20.0033V38H18.0593ZM26.1103 38.156C25.5023 38.156 24.9743 38.112 24.5263 38.024C24.0863 37.944 23.6703 37.808 23.2783 37.616V35.768C23.6463 36.064 24.0623 36.288 24.5263 36.44C24.9903 36.592 25.4343 36.668 25.8583 36.668C26.2103 36.668 26.4863 36.6 26.6863 36.464C26.8863 36.328 26.9863 36.112 26.9863 35.816C26.9863 35.6 26.8943 35.428 26.7103 35.3C26.5343 35.172 26.2943 35.056 25.9903 34.952C25.6943 34.848 25.3663 34.732 25.0063 34.604C24.6943 34.5 24.3943 34.364 24.1063 34.196C23.8263 34.028 23.5943 33.8 23.4103 33.512C23.2343 33.224 23.1463 32.84 23.1463 32.36C23.1463 31.92 23.2543 31.508 23.4703 31.124C23.6863 30.732 24.0223 30.416 24.4783 30.176C24.9343 29.936 25.5183 29.816 26.2303 29.816C26.7183 29.816 27.1303 29.86 27.4663 29.948C27.8103 30.036 28.1663 30.168 28.5343 30.344V32.204C28.2543 31.988 27.9303 31.792 27.5623 31.616C27.2023 31.44 26.8223 31.34 26.4223 31.316C26.0543 31.3 25.7463 31.36 25.4983 31.496C25.2503 31.632 25.1263 31.844 25.1263 32.132C25.1263 32.356 25.1943 32.532 25.3303 32.66C25.4663 32.788 25.6503 32.896 25.8823 32.984C26.1223 33.064 26.3943 33.152 26.6983 33.248C27.1303 33.376 27.5183 33.528 27.8623 33.704C28.2063 33.88 28.4783 34.116 28.6783 34.412C28.8783 34.708 28.9783 35.096 28.9783 35.576C28.9783 36.064 28.8663 36.504 28.6423 36.896C28.4183 37.28 28.0903 37.588 27.6583 37.82C27.2343 38.044 26.7183 38.156 26.1103 38.156Z" fill="white"/>
<path d="M9.56051 6.0074C8.85451 6.06991 8.21812 6.54579 7.98799 7.26033L5.08728 16.2595C4.78045 17.2113 5.30888 18.2398 6.26063 18.5466L6.25495 18.5452L7.54479 18.987V20.1817C7.54479 21.1818 8.36301 22 9.36306 22H19.1817C20.1818 22 21 21.1818 21 20.1817V10.7265C21 9.82159 20.3295 9.0687 19.4616 8.93232L10.2765 6.08695C10.0378 6.01024 9.7949 5.98609 9.56051 6.0074L9.56051 6.0074ZM9.62017 6.72904C9.76223 6.71768 9.90854 6.73331 10.052 6.78018C10.0534 6.78018 10.0549 6.78018 10.0563 6.78018L16.9259 8.90817H9.36306C8.83462 8.90817 8.36159 9.13972 8.02777 9.50339L8.67979 7.48194C8.819 7.05009 9.19686 6.76598 9.62017 6.72904H9.62017ZM9.36306 9.6355H19.1817C19.2272 9.6355 19.2712 9.64402 19.3167 9.64828L19.4204 9.68096C19.4559 9.69232 19.4928 9.698 19.5312 9.698C19.963 9.8429 20.2727 10.2435 20.2727 10.7265V20.1817C20.2727 20.7883 19.7883 21.2727 19.1817 21.2727H9.36306C8.7565 21.2727 8.2721 20.7883 8.2721 20.1817V18.8279C8.28914 18.764 8.28914 18.6986 8.2721 18.6361V10.7265C8.2721 10.1199 8.7565 9.6355 9.36306 9.6355ZM18.8181 10.3628C18.4161 10.3628 18.0908 10.6881 18.0908 11.0901C18.0908 11.4922 18.4161 11.8175 18.8181 11.8175C19.2201 11.8175 19.5454 11.4922 19.5454 11.0901C19.5454 10.6881 19.2201 10.3628 18.8181 10.3628ZM7.54479 11.0049V18.2185L6.48934 17.8577C6.48792 17.8562 6.48508 17.8562 6.48223 17.8562C5.9055 17.6687 5.59299 17.0607 5.7805 16.4826L7.54479 11.0049Z" fill="#F9FAFB"/>
</g>
</svg>
