<svg width="48" height="41" viewBox="0 0 48 41" fill="none" xmlns="http://www.w3.org/2000/svg">
<g opacity="0.5">
<path d="M0.471563 38L3.42356 29.996H6.08756L8.77556 38H6.31556L5.87156 36.596H3.12356L2.69156 38H0.471563ZM3.65156 34.916H5.33156L4.47956 32.264L3.65156 34.916ZM12.4268 38.18C11.7948 38.18 11.2228 38.052 10.7108 37.796C10.2068 37.54 9.80675 37.18 9.51075 36.716C9.22275 36.244 9.07875 35.696 9.07875 35.072C9.07875 34.024 9.37075 33.2 9.95475 32.6C10.5468 32 11.3628 31.7 12.4028 31.7C12.7468 31.7 13.1028 31.736 13.4708 31.808C13.8388 31.88 14.1508 31.98 14.4068 32.108V33.944C14.1188 33.808 13.8428 33.692 13.5788 33.596C13.3228 33.5 13.0548 33.452 12.7748 33.452C12.3588 33.452 11.9988 33.556 11.6948 33.764C11.3988 33.964 11.2508 34.3 11.2508 34.772C11.2508 35.292 11.3748 35.692 11.6228 35.972C11.8708 36.252 12.2948 36.392 12.8948 36.392C13.1908 36.392 13.4748 36.332 13.7468 36.212C14.0268 36.084 14.2548 35.964 14.4308 35.852V37.664C14.1508 37.832 13.8548 37.96 13.5428 38.048C13.2388 38.136 12.8668 38.18 12.4268 38.18ZM18.2571 38.3C17.4331 38.3 16.8331 38.12 16.4571 37.76C16.0891 37.4 15.9051 36.892 15.9051 36.236V33.512H15.0891V31.892H15.9051V30.236H18.2091V31.892H19.4571V33.512H18.2091V36.032C18.2091 36.328 18.3731 36.476 18.7011 36.476C18.8131 36.476 18.9411 36.448 19.0851 36.392C19.2291 36.336 19.3531 36.264 19.4571 36.176V38.012C19.2571 38.124 19.0531 38.2 18.8451 38.24C18.6451 38.28 18.4491 38.3 18.2571 38.3ZM20.7122 31.172V29.6H22.9442V31.172H20.7122ZM20.7362 38V32.012H22.9202L22.9442 38H20.7362ZM26.4322 38L23.9002 31.892H26.2642L27.6562 35.552L28.8202 31.892H31.1482L28.6162 38H26.4322ZM32.1028 31.172V29.6H34.3348V31.172H32.1028ZM32.1268 38V32.012H34.3108L34.3348 38H32.1268ZM38.5188 38.3C37.6948 38.3 37.0948 38.12 36.7188 37.76C36.3508 37.4 36.1668 36.892 36.1668 36.236V33.512H35.3508V31.892H36.1668V30.236H38.4708V31.892H39.7188V33.512H38.4708V36.032C38.4708 36.328 38.6348 36.476 38.9628 36.476C39.0748 36.476 39.2028 36.448 39.3468 36.392C39.4908 36.336 39.6148 36.264 39.7188 36.176V38.012C39.5188 38.124 39.3148 38.2 39.1068 38.24C38.9068 38.28 38.7108 38.3 38.5188 38.3ZM42.5819 40.364C42.3499 40.364 42.1179 40.34 41.8859 40.292C41.6539 40.252 41.4499 40.192 41.2739 40.112V38.372C41.4419 38.428 41.5859 38.464 41.7059 38.48C41.8259 38.504 41.9459 38.516 42.0659 38.516C42.2499 38.516 42.4139 38.476 42.5579 38.396C42.7099 38.316 42.8299 38.148 42.9179 37.892L40.4939 31.892H42.9899L44.0219 35.48L45.0419 31.892H47.4059L45.1019 37.88C44.7579 38.776 44.3739 39.412 43.9499 39.788C43.5339 40.172 43.0779 40.364 42.5819 40.364Z" fill="white"/>
<path d="M29 15H26L23.75 22L19.25 8L17 15H14" stroke="#F9FAFB" stroke-width="1.2" stroke-linecap="round" stroke-linejoin="round"/>
</g>
</svg>
