<svg width="32" height="40" viewBox="0 0 32 40" fill="none" xmlns="http://www.w3.org/2000/svg">
<g opacity="0.5">
<path d="M3.648 38.18C3.04 38.18 2.492 38.144 2.004 38.072C1.516 38.008 1.072 37.88 0.672 37.688V35.456C1.096 35.784 1.544 36.02 2.016 36.164C2.496 36.308 2.912 36.38 3.264 36.38C3.52 36.38 3.728 36.34 3.888 36.26C4.056 36.172 4.14 36.004 4.14 35.756C4.14 35.596 4.052 35.468 3.876 35.372C3.7 35.268 3.46 35.172 3.156 35.084C2.852 34.996 2.508 34.888 2.124 34.76C1.836 34.656 1.56 34.52 1.296 34.352C1.04 34.184 0.828 33.956 0.66 33.668C0.5 33.38 0.42 33.008 0.42 32.552C0.42 32.048 0.544 31.588 0.792 31.172C1.04 30.748 1.412 30.412 1.908 30.164C2.404 29.916 3.028 29.792 3.78 29.792C4.276 29.792 4.708 29.832 5.076 29.912C5.444 29.992 5.812 30.124 6.18 30.308V32.588C5.908 32.348 5.572 32.132 5.172 31.94C4.772 31.74 4.396 31.624 4.044 31.592C3.86 31.576 3.676 31.584 3.492 31.616C3.316 31.648 3.168 31.716 3.048 31.82C2.936 31.916 2.88 32.06 2.88 32.252C2.88 32.428 2.944 32.568 3.072 32.672C3.2 32.768 3.376 32.852 3.6 32.924C3.832 32.988 4.088 33.06 4.368 33.14C4.824 33.268 5.22 33.424 5.556 33.608C5.892 33.784 6.152 34.02 6.336 34.316C6.52 34.604 6.612 34.984 6.612 35.456C6.612 35.992 6.484 36.468 6.228 36.884C5.98 37.292 5.632 37.612 5.184 37.844C4.744 38.068 4.232 38.18 3.648 38.18ZM9.32325 38L7.27125 31.892H9.63525L10.4873 35.204L11.3033 31.892H12.8393L13.6673 35.3L14.5312 31.892H16.8713L14.8313 38H12.8993L12.0593 35.276L11.2553 38H9.32325ZM20.2894 38.18C19.7374 38.18 19.2494 38.116 18.8254 37.988C18.4014 37.852 18.0694 37.628 17.8294 37.316C17.5894 36.996 17.4694 36.556 17.4694 35.996C17.4694 35.668 17.5414 35.372 17.6854 35.108C17.8294 34.836 18.0574 34.62 18.3694 34.46C18.6894 34.292 19.1054 34.208 19.6174 34.208C19.8894 34.208 20.1654 34.248 20.4454 34.328C20.7334 34.408 20.9814 34.504 21.1894 34.616V34.376C21.1894 34.048 21.0774 33.812 20.8534 33.668C20.6374 33.524 20.3294 33.452 19.9294 33.452C19.5614 33.452 19.1974 33.524 18.8374 33.668C18.4774 33.804 18.1974 33.956 17.9974 34.124V32.228C18.1814 32.108 18.4974 31.988 18.9454 31.868C19.3934 31.748 19.9214 31.688 20.5294 31.688C20.6814 31.688 20.8734 31.7 21.1054 31.724C21.3454 31.748 21.5934 31.8 21.8494 31.88C22.1054 31.952 22.3454 32.068 22.5694 32.228C22.8014 32.388 22.9854 32.604 23.1214 32.876C23.2654 33.14 23.3374 33.48 23.3374 33.896L23.3254 36.74C23.3094 37.7 22.2974 38.18 20.2894 38.18ZM19.6294 36.104C19.6294 36.256 19.6934 36.396 19.8214 36.524C19.9574 36.644 20.1134 36.704 20.2894 36.704C20.6494 36.704 20.8894 36.684 21.0094 36.644C21.1294 36.596 21.1894 36.508 21.1894 36.38V35.636C20.9894 35.58 20.7854 35.552 20.5774 35.552C20.2334 35.552 19.9894 35.596 19.8454 35.684C19.7014 35.764 19.6294 35.904 19.6294 36.104ZM28.4506 38.18C28.3706 38.18 28.2426 38.176 28.0666 38.168C27.8986 38.168 27.7106 38.144 27.5026 38.096C27.3026 38.056 27.1066 37.98 26.9146 37.868V39.98H24.7786V33.26C24.7786 32.908 24.9106 32.616 25.1746 32.384C25.4386 32.144 25.8026 31.964 26.2666 31.844C26.7306 31.716 27.2626 31.652 27.8626 31.652C28.5266 31.652 29.0946 31.756 29.5666 31.964C30.0466 32.164 30.4146 32.504 30.6706 32.984C30.9346 33.464 31.0666 34.124 31.0666 34.964C31.0666 35.596 30.9586 36.156 30.7426 36.644C30.5346 37.124 30.2346 37.5 29.8426 37.772C29.4586 38.044 28.9946 38.18 28.4506 38.18ZM27.6946 36.476C27.9586 36.476 28.1786 36.436 28.3546 36.356C28.5386 36.268 28.6746 36.112 28.7626 35.888C28.8586 35.656 28.9066 35.32 28.9066 34.88C28.9066 34.376 28.8186 34.012 28.6426 33.788C28.4746 33.564 28.1826 33.452 27.7666 33.452C27.3986 33.452 27.1626 33.484 27.0586 33.548C26.9626 33.612 26.9146 33.696 26.9146 33.8V36.296C27.0266 36.352 27.1586 36.396 27.3106 36.428C27.4626 36.46 27.5906 36.476 27.6946 36.476Z" fill="white"/>
<path d="M7.24012 6.8667L4.12012 10.7667H6.46012V17.7867C6.46012 19.9313 8.21549 21.6867 10.3601 21.6867C12.5047 21.6867 14.2601 19.9313 14.2601 17.7867V11.5467C14.2601 10.2453 15.2987 9.2067 16.6001 9.2067C17.9015 9.2067 18.9401 10.2453 18.9401 11.5467V18.5667H16.6001L19.7201 22.4667L22.8401 18.5667H20.5001V11.5467C20.5001 9.40208 18.7447 7.6467 16.6001 7.6467C14.4555 7.6467 12.7001 9.40208 12.7001 11.5467V17.7867C12.7001 19.0881 11.6615 20.1267 10.3601 20.1267C9.0587 20.1267 8.02012 19.0881 8.02012 17.7867V10.7667H10.3601L7.24012 6.8667Z" fill="#F9FAFB"/>
</g>
</svg>
