<svg width="32" height="41" viewBox="0 0 32 41" fill="none" xmlns="http://www.w3.org/2000/svg">
<path d="M4.392 39.156C3.112 39.156 2.136 38.82 1.464 38.148C0.792 37.468 0.456 36.42 0.456 35.004C0.456 33.62 0.776 32.576 1.416 31.872C2.064 31.168 3.056 30.816 4.392 30.816C4.816 30.816 5.244 30.872 5.676 30.984C6.108 31.088 6.528 31.228 6.936 31.404V33.096C6.52 32.824 6.12 32.628 5.736 32.508C5.352 32.388 4.992 32.328 4.656 32.328C4.184 32.328 3.784 32.412 3.456 32.58C3.128 32.748 2.88 33.028 2.712 33.42C2.544 33.812 2.46 34.34 2.46 35.004C2.46 35.668 2.544 36.192 2.712 36.576C2.888 36.96 3.144 37.236 3.48 37.404C3.824 37.564 4.244 37.644 4.74 37.644C5.036 37.644 5.372 37.588 5.748 37.476C6.124 37.364 6.52 37.172 6.936 36.9V38.592C6.608 38.76 6.208 38.896 5.736 39C5.264 39.104 4.816 39.156 4.392 39.156ZM11.0866 39.18C9.03059 39.18 8.00659 38.1 8.01459 35.94C8.01459 34.796 8.27459 33.976 8.79459 33.48C9.31459 32.976 10.0786 32.724 11.0866 32.724C12.1026 32.724 12.8746 32.984 13.4026 33.504C13.9306 34.016 14.1946 34.828 14.1946 35.94C14.1946 37.004 13.9266 37.812 13.3906 38.364C12.8546 38.908 12.0866 39.18 11.0866 39.18ZM11.0866 37.752C11.5266 37.752 11.8586 37.6 12.0826 37.296C12.3066 36.984 12.4186 36.532 12.4186 35.94C12.4186 35.268 12.3026 34.8 12.0706 34.536C11.8466 34.272 11.5186 34.14 11.0866 34.14C10.6306 34.14 10.2986 34.276 10.0906 34.548C9.88259 34.82 9.77859 35.284 9.77859 35.94C9.77859 36.548 9.88259 37.004 10.0906 37.308C10.3066 37.604 10.6386 37.752 11.0866 37.752ZM15.4287 32.1V30.72H17.2767V32.1H15.4287ZM15.4647 39V33.012H17.2527L17.2647 39H15.4647ZM18.8623 33.444C19.0623 33.332 19.3423 33.224 19.7023 33.12C20.0703 33.016 20.4583 32.932 20.8663 32.868C21.2823 32.796 21.6623 32.76 22.0063 32.76C22.8223 32.76 23.4543 32.92 23.9023 33.24C24.3583 33.56 24.5863 34.12 24.5863 34.92V39H22.7983V35.28C22.7983 34.968 22.7103 34.716 22.5343 34.524C22.3583 34.332 22.0543 34.236 21.6223 34.236C21.4383 34.236 21.2543 34.26 21.0703 34.308C20.8863 34.348 20.7463 34.392 20.6503 34.44V39H18.8623V33.444ZM27.9748 39.18C27.5428 39.18 27.1708 39.132 26.8588 39.036C26.5548 38.948 26.2708 38.848 26.0068 38.736V37.164C26.2468 37.34 26.5388 37.508 26.8828 37.668C27.2348 37.82 27.6228 37.896 28.0468 37.896C28.3348 37.896 28.5348 37.848 28.6468 37.752C28.7668 37.648 28.8268 37.524 28.8268 37.38C28.8268 37.244 28.7668 37.136 28.6468 37.056C28.5268 36.968 28.3708 36.896 28.1788 36.84C27.9868 36.784 27.7828 36.732 27.5668 36.684C27.3028 36.628 27.0468 36.536 26.7988 36.408C26.5588 36.272 26.3588 36.08 26.1988 35.832C26.0468 35.576 25.9708 35.248 25.9708 34.848C25.9708 34.464 26.0468 34.14 26.1988 33.876C26.3508 33.612 26.5508 33.4 26.7988 33.24C27.0468 33.08 27.3148 32.968 27.6028 32.904C27.8908 32.832 28.1708 32.8 28.4428 32.808C28.9388 32.824 29.3308 32.88 29.6188 32.976C29.9068 33.064 30.1748 33.18 30.4228 33.324V34.728C30.1508 34.576 29.8788 34.436 29.6068 34.308C29.3428 34.172 29.0388 34.104 28.6948 34.104C28.3828 34.104 28.1588 34.156 28.0228 34.26C27.8868 34.356 27.8188 34.48 27.8188 34.632C27.8188 34.864 27.9188 35.024 28.1188 35.112C28.3188 35.2 28.5548 35.28 28.8268 35.352C29.0268 35.4 29.2348 35.46 29.4508 35.532C29.6668 35.596 29.8668 35.692 30.0508 35.82C30.2348 35.94 30.3828 36.112 30.4948 36.336C30.6148 36.56 30.6748 36.848 30.6748 37.2C30.6668 37.688 30.5348 38.076 30.2788 38.364C30.0228 38.652 29.6908 38.86 29.2828 38.988C28.8748 39.116 28.4388 39.18 27.9748 39.18Z" fill="white"/>
<path fill-rule="evenodd" clip-rule="evenodd" d="M16.3932 6.19998C16.3932 5.8686 16.1246 5.59998 15.7932 5.59998C15.4619 5.59998 15.1932 5.8686 15.1932 6.19998V8.49542H13.9835C13.1524 8.49542 12.3554 8.82556 11.7678 9.41321C11.1801 10.0009 10.85 10.7979 10.85 11.6289C10.85 12.46 11.1801 13.257 11.7678 13.8447C12.3554 14.4323 13.1524 14.7625 13.9835 14.7625H15.1932V18.6295H11.45C11.1186 18.6295 10.85 18.8981 10.85 19.2295C10.85 19.5609 11.1186 19.8295 11.45 19.8295H15.1932V22.125C15.1932 22.4563 15.4619 22.725 15.7932 22.725C16.1246 22.725 16.3932 22.4563 16.3932 22.125V19.8295H17.6028C18.4339 19.8295 19.2309 19.4994 19.8186 18.9117C20.4062 18.3241 20.7363 17.5271 20.7363 16.696C20.7363 15.8649 20.4062 15.0679 19.8186 14.4803C19.2309 13.8926 18.4339 13.5625 17.6028 13.5625H16.3932V9.69542H19.4125C19.7438 9.69542 20.0125 9.42679 20.0125 9.09542C20.0125 8.76405 19.7438 8.49542 19.4125 8.49542H16.3932V6.19998ZM15.1932 9.69542H13.9835C13.4707 9.69542 12.9789 9.89913 12.6163 10.2617C12.2537 10.6243 12.05 11.1161 12.05 11.6289C12.05 12.1417 12.2537 12.6335 12.6163 12.9962C12.9789 13.3588 13.4707 13.5625 13.9835 13.5625H15.1932V9.69542ZM16.3932 14.7625V18.6295H17.6028C18.1156 18.6295 18.6074 18.4258 18.97 18.0632C19.3326 17.7006 19.5363 17.2088 19.5363 16.696C19.5363 16.1832 19.3326 15.6914 18.97 15.3288C18.6074 14.9662 18.1156 14.7625 17.6028 14.7625H16.3932Z" fill="#F9FAFB"/>
</svg>
