<svg width="103" height="33" viewBox="0 0 103 33" fill="none" xmlns="http://www.w3.org/2000/svg">
<path d="M79.8774 32.2465H71.1187V15.713C71.1187 13.4799 70.8676 11.8735 69.6592 11.8735C68.4509 11.8735 68.1998 13.4799 68.1998 15.713V32.2465H59.4472V15.713C59.4472 13.4799 59.1962 11.8735 57.9878 11.8735C56.7794 11.8735 56.5284 13.4799 56.5284 15.713V32.2465H47.7717V6.98083H56.5324V9.60578C57.6306 7.72994 59.5942 6.49707 62.1028 6.49707C64.4951 6.49707 66.5669 7.36253 67.8753 9.84256C69.0163 7.56664 71.1779 6.49707 73.5559 6.49707C76.9544 6.49707 79.8835 8.66888 79.8835 14.1372L79.8774 32.2465ZM35.9921 19.632C34.8245 20.5996 33.0691 21.6161 33.0691 24.6942C33.0691 26.7578 33.5998 27.6008 34.5306 27.6008C35.4614 27.6008 35.9921 26.7578 35.9921 24.6942V19.632ZM34.749 6.50115C40.5623 6.50115 44.7508 8.51375 44.7508 14.8557V32.2465H35.9941V30.0543C35.0593 31.5443 33.3671 32.7078 30.636 32.7078C28.7541 32.7078 24.3614 32.0485 24.3614 25.5025C24.3614 16.5213 35.9962 19.5973 35.9962 14.129C35.9962 11.898 35.4675 10.9856 34.5347 10.9856C33.6019 10.9856 33.0752 11.898 33.0752 14.129V15.5089H24.7493V14.8455C24.7493 8.50354 28.9357 6.49094 34.751 6.49094L34.749 6.50115ZM94.631 22.0855H102.953C102.839 29.446 98.595 32.6997 92.747 32.6997C86.8072 32.6997 82.5268 29.3623 82.5268 21.7855V17.4112C82.5268 9.83439 86.8133 6.49707 92.747 6.49707C98.6807 6.49707 102.965 9.83439 102.965 17.4112V20.0648H91.2896V24.3859C91.2896 26.619 91.5774 28.2254 92.9654 28.2254C94.3534 28.2254 94.6412 26.619 94.6412 24.3859L94.631 22.0855ZM94.1983 14.8128C94.1983 12.5798 93.9492 10.9734 92.7388 10.9734C91.5284 10.9734 91.2794 12.5798 91.2794 14.8128V16.1478H94.1983V14.8128ZM21.8386 12.3961V11.1244C21.8386 2.37593 16.6519 0 10.9203 0C5.18867 0 0 3.10667 0 11.8552V20.8363C0 26.721 2.4882 32.6935 9.16693 32.6935C12.2287 32.6935 14.1943 31.2157 15.0435 29.8114L15.7293 32.2465H21.8283V15.5089H11.2367V20.9057H13.6126V22.0406C13.6126 24.784 13.2329 27.2987 11.5041 27.2987C9.7752 27.2987 9.39758 24.7901 9.39758 22.0406V10.5325C9.39758 7.85649 9.57312 5.403 10.9142 5.403C12.2552 5.403 12.4328 7.85241 12.4328 10.5325V12.4022L21.8386 12.3961Z" fill="white"/>
</svg>
