<svg width="187" height="39" viewBox="0 0 187 39" fill="none" xmlns="http://www.w3.org/2000/svg">
<path fill-rule="evenodd" clip-rule="evenodd" d="M71.1187 32.2465H79.8774L79.8835 14.1372C79.8835 8.66888 76.9544 6.49707 73.5559 6.49707C71.1779 6.49707 69.0163 7.56664 67.8753 9.84256C66.5669 7.36253 64.4951 6.49707 62.1028 6.49707C59.5942 6.49707 57.6306 7.72994 56.5324 9.60578V6.98083H47.7717V32.2465H56.5284V15.713C56.5284 13.4799 56.7794 11.8735 57.9878 11.8735C59.1962 11.8735 59.4472 13.4799 59.4472 15.713V32.2465H68.1998V15.713C68.1998 13.4799 68.4509 11.8735 69.6592 11.8735C70.8676 11.8735 71.1187 13.4799 71.1187 15.713V32.2465ZM35.5979 19.9484C35.7341 19.8407 35.8665 19.7361 35.9921 19.632V24.6942C35.9921 26.7578 35.4614 27.6008 34.5306 27.6008C33.5998 27.6008 33.0691 26.7578 33.0691 24.6942C33.0691 21.9471 34.4672 20.8421 35.5979 19.9484ZM44.7508 14.8557C44.7508 8.51375 40.5623 6.50115 34.749 6.50115L34.751 6.49094C28.9357 6.49094 24.7493 8.50354 24.7493 14.8455V15.5089H33.0752V14.129C33.0752 11.898 33.6019 10.9856 34.5347 10.9856C35.4675 10.9856 35.9962 11.898 35.9962 14.129C35.9962 16.5258 33.7611 17.2811 31.2502 18.1297C28.0323 19.2171 24.3614 20.4577 24.3614 25.5025C24.3614 32.0485 28.7541 32.7078 30.636 32.7078C33.3671 32.7078 35.0593 31.5443 35.9941 30.0543V32.2465H44.7508V14.8557ZM102.953 22.0855H94.631L94.6412 24.3859C94.6412 26.619 94.3534 28.2254 92.9654 28.2254C91.5774 28.2254 91.2896 26.619 91.2896 24.3859V20.0648H102.965V17.4112C102.965 9.83439 98.6807 6.49707 92.747 6.49707C86.8133 6.49707 82.5268 9.83439 82.5268 17.4112V21.7855C82.5268 29.3623 86.8072 32.6997 92.747 32.6997C98.595 32.6997 102.839 29.446 102.953 22.0855ZM92.7388 10.9734C93.9492 10.9734 94.1983 12.5798 94.1983 14.8128V16.1478H91.2794V14.8128C91.2794 12.5798 91.5284 10.9734 92.7388 10.9734ZM21.8386 11.1244V12.3961L12.4328 12.4022V10.5325C12.4328 7.85241 12.2552 5.403 10.9142 5.403C9.57312 5.403 9.39758 7.85649 9.39758 10.5325V22.0406C9.39758 24.7901 9.7752 27.2987 11.5041 27.2987C13.2329 27.2987 13.6126 24.784 13.6126 22.0406V20.9057H11.2367V15.5089H21.8283V32.2465H15.7293L15.0435 29.8114C14.1943 31.2157 12.2287 32.6935 9.16693 32.6935C2.4882 32.6935 0 26.721 0 20.8363V11.8552C0 3.10667 5.18867 0 10.9203 0C16.6519 0 21.8386 2.37593 21.8386 11.1244ZM135.702 32.6956C137.427 32.7105 139.138 32.3766 140.731 31.7138V31.7056V28.1886C140.382 28.4138 139.976 28.5342 139.561 28.5356C138.151 28.5356 137.859 27.1068 137.859 25.4739V10.3243H140.731V6.98082H137.859V3.55572H129.102V6.98082H127.343V10.3243H129.102V25.8678C129.102 30.3666 131.546 32.6956 135.702 32.6956ZM125.688 10.3243H117.002V7.97283C117.002 6.05004 116.218 5.41931 115.392 5.41931C114.565 5.41931 113.781 6.05004 113.781 7.97283C113.781 10.8118 116.067 11.8328 118.688 13.0036C122.21 14.5772 126.339 16.4213 126.339 23.3123C126.339 29.348 121.817 32.7201 115.757 32.7201C109.417 32.7201 105.176 29.8808 105.176 23.3817V22.11H113.965V24.7635C113.965 26.6863 114.724 27.3171 115.635 27.3171C116.545 27.3171 117.304 26.6863 117.304 24.7635C117.304 21.4657 114.816 20.1408 112.086 18.6871C108.769 16.9207 105.094 14.9642 105.094 9.04648C105.094 3.30057 109.515 0.0122375 115.392 0.0122375C121.544 0.0122375 125.688 2.76783 125.688 8.97709V10.3243ZM152.141 10.9754C153.35 10.9754 153.601 12.5818 153.601 14.8149V24.3778C153.601 26.6088 153.352 28.2152 152.141 28.2152C150.931 28.2152 150.68 26.6088 150.68 24.3778V14.8149C150.68 12.5818 150.933 10.9754 152.141 10.9754ZM162.355 17.4071C162.355 9.8303 158.077 6.49297 152.137 6.49297V6.49706C146.205 6.49706 141.919 9.83438 141.919 17.4112V21.7834C141.919 29.3603 146.205 32.6976 152.137 32.6976C158.069 32.6976 162.355 29.3603 162.355 21.7834V17.4071ZM175.243 11.8592C176.454 11.8592 176.703 13.4677 176.703 15.6987V23.5021C176.703 25.7331 176.452 27.3395 175.243 27.3395C174.035 27.3395 173.784 25.7331 173.784 23.5021V15.6987C173.784 13.4677 174.033 11.8592 175.243 11.8592ZM185.457 17.4112C185.457 9.83438 183.067 6.49706 178.925 6.49706L178.93 6.48889C176.954 6.48889 174.917 7.47274 173.79 9.1812V6.98082H165.029V38.5742H173.786V30.0094C174.913 31.7178 176.95 32.7017 178.925 32.7017C183.063 32.7017 185.457 29.3644 185.457 21.7855V17.4112ZM184.618 8.2341C184.475 8.15221 184.358 8.03296 184.277 7.88914C184.198 7.74833 184.157 7.58941 184.157 7.42783C184.157 7.30445 184.181 7.18224 184.228 7.0682C184.275 6.95416 184.344 6.85054 184.431 6.7633C184.519 6.67606 184.622 6.60691 184.736 6.55982C184.85 6.51273 184.973 6.48862 185.096 6.48889C185.259 6.48844 185.419 6.53059 185.56 6.61116C185.702 6.69173 185.82 6.80791 185.902 6.94816C186.007 7.12731 186.05 7.33632 186.024 7.54243C185.998 7.74855 185.904 7.94014 185.757 8.08718C185.61 8.23423 185.419 8.32842 185.213 8.355C185.007 8.38159 184.798 8.33907 184.618 8.2341ZM184.692 6.72771C184.569 6.79841 184.467 6.89969 184.396 7.02164H184.404C184.322 7.17584 184.292 7.35212 184.318 7.52466C184.344 7.69719 184.424 7.8569 184.548 7.98038C184.671 8.10386 184.831 8.18462 185.003 8.21081C185.176 8.237 185.352 8.20724 185.506 8.12592C185.628 8.05463 185.73 7.95348 185.802 7.83199C185.907 7.64625 185.935 7.42698 185.88 7.22102C185.825 7.01506 185.691 6.83875 185.508 6.72975C185.385 6.65621 185.244 6.61807 185.1 6.61953C184.957 6.61807 184.816 6.65546 184.692 6.72771ZM185.082 6.87671C185.188 6.86957 185.294 6.89753 185.384 6.95632V6.97673C185.437 7.02952 185.47 7.09926 185.477 7.17384C185.484 7.24841 185.465 7.32312 185.423 7.38497C185.379 7.43979 185.322 7.48207 185.257 7.50744L185.541 7.98711H185.353L185.096 7.54826H184.955V7.97487H184.796V6.87671H185.082ZM185.067 7.05021H184.955V7.40742H185.069C185.231 7.40742 185.312 7.34618 185.312 7.22167C185.315 7.19634 185.31 7.17086 185.3 7.14763C185.29 7.12441 185.273 7.10422 185.253 7.089C185.196 7.05875 185.132 7.0453 185.067 7.05021Z" fill="white"/>
</svg>
