<svg width="156" height="145" viewBox="0 0 156 145" fill="none" xmlns="http://www.w3.org/2000/svg">
<g opacity="0.444894">
<path opacity="0.415225" d="M50.4055 88C50.4055 88 26.0857 92.3189 28.121 101.979C28.121 101.979 31.8061 116.292 78.9379 106.679L85 98.5694L50.4055 88Z" fill="#D1D5E1"/>
<path d="M79 67.4355V107L109 93.8123V55L79 67.4355Z" fill="#D8DCE8"/>
<path d="M108 55.4075L78 48L78.3716 68L108 55.4075Z" fill="#D1D5E2"/>
<path d="M79 67.2227L85.2901 85L116 72.0402L108.232 55L79 67.2227Z" fill="#E9EDF6"/>
<path d="M79 67.4223V107L46.4943 94.5604L45 58L79 67.4223Z" fill="#D0D5E2"/>
<path d="M45.1774 58L37 71.8137L73.4251 86L79 67.3376L45.1774 58Z" fill="#E1E5F0"/>
<path d="M45 58.37L78.6296 48L79 68L45 58.37Z" fill="#CBD1E0"/>
<path d="M89 36.0049C89 36.0049 75.1283 35.2964 71 50.9777C70.9971 50.9785 87.6819 52.2223 89 36.0049Z" fill="#E0E5F0"/>
<path fill-rule="evenodd" clip-rule="evenodd" d="M113.878 41.9451C117.118 30.4889 128 31.0035 128 31.0035V31.0057C126.968 42.8558 113.878 41.9451 113.878 41.9451ZM81.9044 43.929C84.2951 41.8479 86.5352 39.6043 88.6081 37.2149C82.7635 48.2777 73 50 73 50C76.231 48.3793 79.226 46.3373 81.9044 43.929Z" fill="#D8DCE8"/>
<path fill-rule="evenodd" clip-rule="evenodd" d="M127.028 20.1389C127.023 20.1459 127.019 20.1494 127.019 20.1494H127.016C127.02 20.1459 127.024 20.1424 127.028 20.1389ZM131.86 0C131.86 0 139.067 9.56643 127.028 20.1389C127.343 19.7688 135.82 9.66775 131.86 0ZM93.489 37.6866C93.489 37.6866 110.085 32.1745 122.547 9.70116C119.662 16.5729 115.444 22.7984 110.137 28.014C105.498 32.6097 99.7667 35.9395 93.4875 37.6881L93.489 37.6866ZM113.978 41.7735C113.978 41.7735 117.225 30.0668 113.978 41.772V41.7735ZM88.6461 36.9425C88.6461 36.9425 81.1142 46.109 73 50C73 50 82.7873 48.243 88.6461 36.9425Z" fill="#CBD1E0"/>
</g>
</svg>
