<svg width="156" height="145" viewBox="0 0 156 145" fill="none" xmlns="http://www.w3.org/2000/svg">
<g opacity="0.444894">
<path opacity="0.415225" d="M50.4055 88C50.4055 88 26.0857 92.3189 28.121 101.979C28.121 101.979 31.8061 116.292 78.9379 106.679L85 98.5694L50.4055 88Z" fill="#D1D5E1"/>
<path d="M79 67.4355V107L109 93.8123V55L79 67.4355Z" fill="#D8DCE8"/>
<path d="M108 55.4075L78 48L78.3716 68L108 55.4075Z" fill="#D1D5E2"/>
<path d="M79 67.2227L85.2901 85L116 72.0402L108.232 55L79 67.2227Z" fill="#E9EDF6"/>
<path d="M79 67.4223V107L46.4943 94.5604L45 58L79 67.4223Z" fill="#D0D5E2"/>
<path d="M45.1774 58L37 71.8137L73.4251 86L79 67.3376L45.1774 58Z" fill="#E1E5F0"/>
<path d="M45 58.37L78.6296 48L79 68L45 58.37Z" fill="#CBD1E0"/>
<path d="M89 36.0049C89 36.0049 75.1283 35.2964 71 50.9777C70.9971 50.9785 87.6819 52.2223 89 36.0049Z" fill="#E0E5F0"/>
<path fill-rule="evenodd" clip-rule="evenodd" d="M113.878 41.9451C117.118 30.4889 128 31.0035 128 31.0035V31.0057C126.968 42.8558 113.878 41.9451 113.878 41.9451ZM81.9044 43.929C84.2951 41.8479 86.5352 39.6043 88.6081 37.2149C82.7635 48.2777 73 50 73 50C76.231 48.3793 79.226 46.3373 81.9044 43.929Z" fill="#D8DCE8"/>
<path fill-rule="evenodd" clip-rule="evenodd" d="M127.028 20.1389C127.023 20.1459 127.019 20.1494 127.019 20.1494H127.016C127.02 20.1459 127.024 20.1424 127.028 20.1389ZM131.86 0C131.86 0 139.067 9.56643 127.028 20.1389C127.343 19.7688 135.82 9.66775 131.86 0ZM93.489 37.6866C93.489 37.6866 110.085 32.1745 122.547 9.70116C119.662 16.5729 115.444 22.7984 110.137 28.014C105.498 32.6097 99.7667 35.9395 93.4875 37.6881L93.489 37.6866ZM113.978 41.7735C113.978 41.7735 117.225 30.0668 113.978 41.772V41.7735ZM88.6461 36.9425C88.6461 36.9425 81.1142 46.109 73 50C73 50 82.7873 48.243 88.6461 36.9425Z" fill="#CBD1E0"/>
</g>
<path d="M4.3657 140V131.996H5.3497L10.1257 138.74V131.996H10.9897V140H10.0177L5.2297 133.256V140H4.3657ZM15.4259 140.18C14.4899 140.18 13.7939 139.904 13.3379 139.352C12.8899 138.792 12.6659 138.016 12.6659 137.024C12.6659 135.984 12.9019 135.204 13.3739 134.684C13.8539 134.164 14.5299 133.904 15.4019 133.904C16.0499 133.904 16.5779 134.036 16.9859 134.3C17.3939 134.556 17.6939 134.92 17.8859 135.392C18.0779 135.856 18.1739 136.4 18.1739 137.024C18.1739 138.008 17.9339 138.78 17.4539 139.34C16.9819 139.9 16.3059 140.18 15.4259 140.18ZM15.4139 139.388C15.9019 139.388 16.2819 139.284 16.5539 139.076C16.8259 138.86 17.0179 138.576 17.1299 138.224C17.2499 137.864 17.3099 137.464 17.3099 137.024C17.3099 136.312 17.1699 135.748 16.8899 135.332C16.6099 134.908 16.1179 134.696 15.4139 134.696C14.9339 134.696 14.5579 134.8 14.2859 135.008C14.0139 135.216 13.8179 135.496 13.6979 135.848C13.5859 136.192 13.5299 136.584 13.5299 137.024C13.5299 137.728 13.6699 138.3 13.9499 138.74C14.2299 139.172 14.7179 139.388 15.4139 139.388ZM25.1624 140.096C24.7384 140.096 24.3824 139.968 24.0944 139.712C23.8064 139.448 23.6624 139.06 23.6624 138.548V134.804H22.6184V134.012H23.6624V132.32H24.5264V134.012H26.0744V134.804H24.5264V138.272C24.5264 138.608 24.5784 138.86 24.6824 139.028C24.7864 139.196 24.9984 139.28 25.3184 139.28C25.6144 139.28 25.8664 139.232 26.0744 139.136V139.952C25.9624 139.992 25.8184 140.024 25.6424 140.048C25.4744 140.08 25.3144 140.096 25.1624 140.096ZM27.6377 140V134.492C27.7337 134.452 27.9177 134.384 28.1897 134.288C28.4697 134.192 28.8017 134.104 29.1857 134.024C29.5777 133.944 29.9817 133.904 30.3977 133.904C30.4617 133.904 30.5257 133.912 30.5897 133.928C30.6537 133.944 30.7177 133.96 30.7817 133.976V134.744C30.3657 134.696 29.9737 134.696 29.6057 134.744C29.2377 134.792 28.8697 134.848 28.5017 134.912V140H27.6377ZM34.2252 140.18C33.9612 140.18 33.6932 140.152 33.4212 140.096C33.1572 140.04 32.9092 139.944 32.6772 139.808C32.4532 139.672 32.2692 139.488 32.1252 139.256C31.9892 139.016 31.9212 138.716 31.9212 138.356C31.9212 137.86 32.0132 137.464 32.1972 137.168C32.3892 136.864 32.6492 136.648 32.9772 136.52C33.3132 136.384 33.6972 136.316 34.1292 136.316C34.5772 136.316 34.9492 136.356 35.2452 136.436C35.5412 136.508 35.7972 136.608 36.0132 136.736V136.028C36.0132 135.564 35.8772 135.224 35.6052 135.008C35.3332 134.792 34.9452 134.684 34.4412 134.684C34.1212 134.684 33.7812 134.732 33.4212 134.828C33.0692 134.916 32.7652 135.06 32.5092 135.26V134.396C32.7572 134.236 33.0892 134.116 33.5052 134.036C33.9212 133.948 34.3252 133.904 34.7172 133.904C35.3732 133.904 35.8972 134.064 36.2892 134.384C36.6892 134.704 36.8892 135.184 36.8892 135.824V138.728C36.8892 139.152 36.7612 139.468 36.5052 139.676C36.2572 139.884 35.9292 140.02 35.5212 140.084C35.1212 140.148 34.6892 140.18 34.2252 140.18ZM32.7852 138.224C32.7852 138.52 32.8652 138.756 33.0252 138.932C33.1932 139.108 33.4012 139.232 33.6492 139.304C33.9052 139.376 34.1652 139.412 34.4292 139.412C34.9492 139.412 35.3412 139.376 35.6052 139.304C35.8772 139.224 36.0132 139.048 36.0132 138.776V137.432C35.8132 137.336 35.5692 137.256 35.2812 137.192C34.9932 137.128 34.6852 137.096 34.3572 137.096C33.8532 137.096 33.4652 137.192 33.1932 137.384C32.9212 137.576 32.7852 137.856 32.7852 138.224ZM38.8057 134.492C39.5817 134.1 40.4257 133.904 41.3377 133.904C42.2097 133.904 42.8217 134.096 43.1737 134.48C43.5337 134.864 43.7137 135.404 43.7137 136.1V140H42.8497V136.1C42.8497 135.956 42.8297 135.804 42.7897 135.644C42.7577 135.484 42.6897 135.332 42.5857 135.188C42.4817 135.036 42.3217 134.916 42.1057 134.828C41.8897 134.732 41.6017 134.684 41.2417 134.684C40.7457 134.684 40.2217 134.764 39.6697 134.924V140H38.8057V134.492ZM47.3297 140.18C46.8977 140.18 46.5337 140.136 46.2377 140.048C45.9497 139.96 45.6497 139.836 45.3377 139.676V138.764C45.7057 138.972 46.0217 139.128 46.2857 139.232C46.5577 139.336 46.8857 139.388 47.2697 139.388C47.6697 139.388 47.9937 139.3 48.2417 139.124C48.4977 138.948 48.6257 138.72 48.6257 138.44C48.6257 138.216 48.5617 138.044 48.4337 137.924C48.3137 137.804 48.1577 137.704 47.9657 137.624C47.7737 137.544 47.5737 137.46 47.3657 137.372C47.1337 137.308 46.8977 137.24 46.6577 137.168C46.4257 137.088 46.2097 136.988 46.0097 136.868C45.8177 136.74 45.6617 136.58 45.5417 136.388C45.4217 136.188 45.3617 135.932 45.3617 135.62C45.3617 135.212 45.4657 134.884 45.6737 134.636C45.8817 134.38 46.1457 134.196 46.4657 134.084C46.7937 133.964 47.1217 133.904 47.4497 133.904C47.8097 133.904 48.1177 133.952 48.3737 134.048C48.6297 134.144 48.8937 134.252 49.1657 134.372V135.236C48.8617 135.076 48.5897 134.948 48.3497 134.852C48.1097 134.748 47.8257 134.696 47.4977 134.696C47.1697 134.696 46.8737 134.764 46.6097 134.9C46.3537 135.028 46.2257 135.228 46.2257 135.5C46.2257 135.724 46.2897 135.904 46.4177 136.04C46.5537 136.168 46.7297 136.272 46.9457 136.352C47.1617 136.424 47.3937 136.496 47.6417 136.568C47.8417 136.632 48.0497 136.704 48.2657 136.784C48.4817 136.856 48.6817 136.956 48.8657 137.084C49.0497 137.204 49.1977 137.364 49.3097 137.564C49.4297 137.764 49.4897 138.02 49.4897 138.332C49.4897 138.756 49.3817 139.108 49.1657 139.388C48.9497 139.66 48.6737 139.86 48.3377 139.988C48.0097 140.116 47.6737 140.18 47.3297 140.18ZM53.1744 140.18C52.9104 140.18 52.6424 140.152 52.3704 140.096C52.1064 140.04 51.8584 139.944 51.6264 139.808C51.4024 139.672 51.2184 139.488 51.0744 139.256C50.9384 139.016 50.8704 138.716 50.8704 138.356C50.8704 137.86 50.9624 137.464 51.1464 137.168C51.3384 136.864 51.5984 136.648 51.9264 136.52C52.2624 136.384 52.6464 136.316 53.0784 136.316C53.5264 136.316 53.8984 136.356 54.1944 136.436C54.4904 136.508 54.7464 136.608 54.9624 136.736V136.028C54.9624 135.564 54.8264 135.224 54.5544 135.008C54.2824 134.792 53.8944 134.684 53.3904 134.684C53.0704 134.684 52.7304 134.732 52.3704 134.828C52.0184 134.916 51.7144 135.06 51.4584 135.26V134.396C51.7064 134.236 52.0384 134.116 52.4544 134.036C52.8704 133.948 53.2744 133.904 53.6664 133.904C54.3224 133.904 54.8464 134.064 55.2384 134.384C55.6384 134.704 55.8384 135.184 55.8384 135.824V138.728C55.8384 139.152 55.7104 139.468 55.4544 139.676C55.2064 139.884 54.8784 140.02 54.4704 140.084C54.0704 140.148 53.6384 140.18 53.1744 140.18ZM51.7344 138.224C51.7344 138.52 51.8144 138.756 51.9744 138.932C52.1424 139.108 52.3504 139.232 52.5984 139.304C52.8544 139.376 53.1144 139.412 53.3784 139.412C53.8984 139.412 54.2904 139.376 54.5544 139.304C54.8264 139.224 54.9624 139.048 54.9624 138.776V137.432C54.7624 137.336 54.5184 137.256 54.2304 137.192C53.9424 137.128 53.6344 137.096 53.3064 137.096C52.8024 137.096 52.4144 137.192 52.1424 137.384C51.8704 137.576 51.7344 137.856 51.7344 138.224ZM60.2629 140.096C59.9429 140.096 59.6149 140.056 59.2789 139.976C58.9509 139.888 58.6469 139.736 58.3669 139.52C58.0949 139.296 57.8749 138.98 57.7069 138.572C57.5389 138.164 57.4549 137.64 57.4549 137C57.4549 136.36 57.5389 135.84 57.7069 135.44C57.8749 135.032 58.0949 134.716 58.3669 134.492C58.6469 134.268 58.9509 134.116 59.2789 134.036C59.6149 133.948 59.9429 133.904 60.2629 133.904C60.5669 133.904 60.8669 133.932 61.1629 133.988C61.4669 134.044 61.7589 134.128 62.0389 134.24V135.068C61.7749 134.956 61.5029 134.872 61.2229 134.816C60.9429 134.76 60.6549 134.732 60.3589 134.732C59.6469 134.732 59.1269 134.912 58.7989 135.272C58.4789 135.632 58.3189 136.208 58.3189 137C58.3189 137.8 58.4789 138.38 58.7989 138.74C59.1269 139.092 59.6469 139.268 60.3589 139.268C60.9589 139.268 61.5189 139.156 62.0389 138.932V139.772C61.4789 139.988 60.8869 140.096 60.2629 140.096ZM65.5452 140.096C65.1212 140.096 64.7652 139.968 64.4772 139.712C64.1892 139.448 64.0452 139.06 64.0452 138.548V134.804H63.0012V134.012H64.0452V132.32H64.9092V134.012H66.4572V134.804H64.9092V138.272C64.9092 138.608 64.9612 138.86 65.0652 139.028C65.1692 139.196 65.3812 139.28 65.7012 139.28C65.9972 139.28 66.2492 139.232 66.4572 139.136V139.952C66.3452 139.992 66.2012 140.024 66.0252 140.048C65.8572 140.08 65.6972 140.096 65.5452 140.096ZM68.0205 132.944V131.996H68.9805V132.944H68.0205ZM68.0685 140V134.012H68.9325V140H68.0685ZM73.3634 140.18C72.4274 140.18 71.7314 139.904 71.2754 139.352C70.8274 138.792 70.6034 138.016 70.6034 137.024C70.6034 135.984 70.8394 135.204 71.3114 134.684C71.7914 134.164 72.4674 133.904 73.3394 133.904C73.9874 133.904 74.5154 134.036 74.9234 134.3C75.3314 134.556 75.6314 134.92 75.8234 135.392C76.0154 135.856 76.1114 136.4 76.1114 137.024C76.1114 138.008 75.8714 138.78 75.3914 139.34C74.9194 139.9 74.2434 140.18 73.3634 140.18ZM73.3514 139.388C73.8394 139.388 74.2194 139.284 74.4914 139.076C74.7634 138.86 74.9554 138.576 75.0674 138.224C75.1874 137.864 75.2474 137.464 75.2474 137.024C75.2474 136.312 75.1074 135.748 74.8274 135.332C74.5474 134.908 74.0554 134.696 73.3514 134.696C72.8714 134.696 72.4954 134.8 72.2234 135.008C71.9514 135.216 71.7554 135.496 71.6354 135.848C71.5234 136.192 71.4674 136.584 71.4674 137.024C71.4674 137.728 71.6074 138.3 71.8874 138.74C72.1674 139.172 72.6554 139.388 73.3514 139.388ZM77.7354 134.492C78.5114 134.1 79.3554 133.904 80.2674 133.904C81.1394 133.904 81.7514 134.096 82.1034 134.48C82.4634 134.864 82.6434 135.404 82.6434 136.1V140H81.7794V136.1C81.7794 135.956 81.7594 135.804 81.7194 135.644C81.6874 135.484 81.6194 135.332 81.5154 135.188C81.4114 135.036 81.2514 134.916 81.0354 134.828C80.8194 134.732 80.5314 134.684 80.1714 134.684C79.6754 134.684 79.1514 134.764 78.5994 134.924V140H77.7354V134.492ZM92.9559 136.1V140H92.0919V136.1C92.0919 135.956 92.0719 135.804 92.0319 135.644C91.9999 135.484 91.9319 135.332 91.8279 135.188C91.7239 135.036 91.5639 134.916 91.3479 134.828C91.1319 134.732 90.8439 134.684 90.4839 134.684C89.9879 134.684 89.4639 134.764 88.9119 134.924V140H88.0479V134.492C88.8239 134.1 89.6679 133.904 90.5799 133.904C90.9799 133.904 91.3239 133.948 91.6119 134.036C91.8999 134.116 92.1399 134.236 92.3319 134.396C92.6519 134.228 92.9799 134.104 93.3159 134.024C93.6519 133.944 93.9959 133.904 94.3479 133.904C95.2199 133.904 95.8319 134.096 96.1839 134.48C96.5439 134.864 96.7239 135.404 96.7239 136.1V140H95.8599V136.1C95.8599 135.956 95.8399 135.804 95.7999 135.644C95.7679 135.484 95.6999 135.332 95.5959 135.188C95.4919 135.036 95.3319 134.916 95.1159 134.828C94.8999 134.732 94.6119 134.684 94.2519 134.684C94.0199 134.684 93.7799 134.716 93.5319 134.78C93.2919 134.836 93.0479 134.94 92.7999 135.092C92.9039 135.372 92.9559 135.708 92.9559 136.1ZM100.706 140.18C100.442 140.18 100.174 140.152 99.9016 140.096C99.6376 140.04 99.3896 139.944 99.1576 139.808C98.9336 139.672 98.7496 139.488 98.6056 139.256C98.4696 139.016 98.4016 138.716 98.4016 138.356C98.4016 137.86 98.4936 137.464 98.6776 137.168C98.8696 136.864 99.1296 136.648 99.4576 136.52C99.7936 136.384 100.178 136.316 100.61 136.316C101.058 136.316 101.43 136.356 101.726 136.436C102.022 136.508 102.278 136.608 102.494 136.736V136.028C102.494 135.564 102.358 135.224 102.086 135.008C101.814 134.792 101.426 134.684 100.922 134.684C100.602 134.684 100.262 134.732 99.9016 134.828C99.5496 134.916 99.2456 135.06 98.9896 135.26V134.396C99.2376 134.236 99.5696 134.116 99.9856 134.036C100.402 133.948 100.806 133.904 101.198 133.904C101.854 133.904 102.378 134.064 102.77 134.384C103.17 134.704 103.37 135.184 103.37 135.824V138.728C103.37 139.152 103.242 139.468 102.986 139.676C102.738 139.884 102.41 140.02 102.002 140.084C101.602 140.148 101.17 140.18 100.706 140.18ZM99.2656 138.224C99.2656 138.52 99.3456 138.756 99.5056 138.932C99.6736 139.108 99.8816 139.232 100.13 139.304C100.386 139.376 100.646 139.412 100.91 139.412C101.43 139.412 101.822 139.376 102.086 139.304C102.358 139.224 102.494 139.048 102.494 138.776V137.432C102.294 137.336 102.05 137.256 101.762 137.192C101.474 137.128 101.166 137.096 100.838 137.096C100.334 137.096 99.9456 137.192 99.6736 137.384C99.4016 137.576 99.2656 137.856 99.2656 138.224ZM107.77 140.18C107.482 140.18 107.178 140.136 106.858 140.048C106.538 139.968 106.234 139.816 105.946 139.592C105.666 139.36 105.434 139.032 105.25 138.608C105.074 138.176 104.986 137.616 104.986 136.928C104.986 136 105.21 135.268 105.658 134.732C106.114 134.188 106.802 133.916 107.722 133.916C107.938 133.916 108.198 133.952 108.502 134.024C108.806 134.088 109.082 134.168 109.33 134.264V131.48H110.194V138.968C110.194 139.192 110.114 139.384 109.954 139.544C109.802 139.696 109.602 139.82 109.354 139.916C109.106 140.004 108.842 140.068 108.562 140.108C108.282 140.156 108.018 140.18 107.77 140.18ZM107.782 139.388C108.198 139.388 108.558 139.34 108.862 139.244C109.174 139.148 109.33 139.028 109.33 138.884V135.128C109.082 134.984 108.814 134.88 108.526 134.816C108.246 134.744 107.978 134.708 107.722 134.708C107.066 134.708 106.598 134.916 106.318 135.332C106.038 135.74 105.898 136.272 105.898 136.928C105.898 137.36 105.946 137.764 106.042 138.14C106.138 138.508 106.322 138.808 106.594 139.04C106.866 139.272 107.262 139.388 107.782 139.388ZM114.59 140.18C113.734 140.18 113.058 139.916 112.562 139.388C112.066 138.852 111.818 138.056 111.818 137C111.818 135.968 112.05 135.196 112.514 134.684C112.986 134.164 113.63 133.904 114.446 133.904C115.086 133.904 115.598 134.048 115.982 134.336C116.374 134.624 116.654 135.012 116.822 135.5C116.99 135.988 117.07 136.54 117.062 137.156H112.694C112.694 137.884 112.862 138.44 113.198 138.824C113.542 139.2 114.022 139.388 114.638 139.388C115.078 139.388 115.466 139.34 115.802 139.244C116.146 139.148 116.442 139.024 116.69 138.872V139.76C116.106 140.04 115.406 140.18 114.59 140.18ZM114.446 134.696C113.942 134.696 113.55 134.816 113.27 135.056C112.99 135.288 112.81 135.724 112.73 136.364H116.15C116.118 135.804 115.962 135.388 115.682 135.116C115.402 134.836 114.99 134.696 114.446 134.696ZM123.853 140.18C123.421 140.18 123.057 140.136 122.761 140.048C122.473 139.96 122.173 139.836 121.861 139.676V138.764C122.229 138.972 122.545 139.128 122.809 139.232C123.081 139.336 123.409 139.388 123.793 139.388C124.193 139.388 124.517 139.3 124.765 139.124C125.021 138.948 125.149 138.72 125.149 138.44C125.149 138.216 125.085 138.044 124.957 137.924C124.837 137.804 124.681 137.704 124.489 137.624C124.297 137.544 124.097 137.46 123.889 137.372C123.657 137.308 123.421 137.24 123.181 137.168C122.949 137.088 122.733 136.988 122.533 136.868C122.341 136.74 122.185 136.58 122.065 136.388C121.945 136.188 121.885 135.932 121.885 135.62C121.885 135.212 121.989 134.884 122.197 134.636C122.405 134.38 122.669 134.196 122.989 134.084C123.317 133.964 123.645 133.904 123.973 133.904C124.333 133.904 124.641 133.952 124.897 134.048C125.153 134.144 125.417 134.252 125.689 134.372V135.236C125.385 135.076 125.113 134.948 124.873 134.852C124.633 134.748 124.349 134.696 124.021 134.696C123.693 134.696 123.397 134.764 123.133 134.9C122.877 135.028 122.749 135.228 122.749 135.5C122.749 135.724 122.813 135.904 122.941 136.04C123.077 136.168 123.253 136.272 123.469 136.352C123.685 136.424 123.917 136.496 124.165 136.568C124.365 136.632 124.573 136.704 124.789 136.784C125.005 136.856 125.205 136.956 125.389 137.084C125.573 137.204 125.721 137.364 125.833 137.564C125.953 137.764 126.013 138.02 126.013 138.332C126.013 138.756 125.905 139.108 125.689 139.388C125.473 139.66 125.197 139.86 124.861 139.988C124.533 140.116 124.197 140.18 123.853 140.18ZM130.094 140.18C129.158 140.18 128.462 139.904 128.006 139.352C127.558 138.792 127.334 138.016 127.334 137.024C127.334 135.984 127.57 135.204 128.042 134.684C128.522 134.164 129.198 133.904 130.07 133.904C130.718 133.904 131.246 134.036 131.654 134.3C132.062 134.556 132.362 134.92 132.554 135.392C132.746 135.856 132.842 136.4 132.842 137.024C132.842 138.008 132.602 138.78 132.122 139.34C131.65 139.9 130.974 140.18 130.094 140.18ZM130.082 139.388C130.57 139.388 130.95 139.284 131.222 139.076C131.494 138.86 131.686 138.576 131.798 138.224C131.918 137.864 131.978 137.464 131.978 137.024C131.978 136.312 131.838 135.748 131.558 135.332C131.278 134.908 130.786 134.696 130.082 134.696C129.602 134.696 129.226 134.8 128.954 135.008C128.682 135.216 128.486 135.496 128.366 135.848C128.254 136.192 128.198 136.584 128.198 137.024C128.198 137.728 128.338 138.3 128.618 138.74C128.898 139.172 129.386 139.388 130.082 139.388ZM138.498 140V134.804H137.466V134.012H138.498V133.688C138.498 133.248 138.546 132.892 138.642 132.62C138.746 132.34 138.878 132.124 139.038 131.972C139.198 131.812 139.366 131.7 139.542 131.636C139.718 131.564 139.886 131.524 140.046 131.516C140.206 131.5 140.334 131.492 140.43 131.492C140.646 131.492 140.838 131.516 141.006 131.564V132.332C140.95 132.316 140.886 132.304 140.814 132.296C140.742 132.288 140.662 132.284 140.574 132.284C140.438 132.284 140.298 132.292 140.154 132.308C140.01 132.324 139.878 132.376 139.758 132.464C139.638 132.544 139.542 132.68 139.47 132.872C139.398 133.056 139.362 133.324 139.362 133.676V134.012H141.006V134.804H139.362V140H138.498ZM144.51 140.18C144.246 140.18 143.978 140.152 143.706 140.096C143.442 140.04 143.194 139.944 142.962 139.808C142.738 139.672 142.554 139.488 142.41 139.256C142.274 139.016 142.206 138.716 142.206 138.356C142.206 137.86 142.298 137.464 142.482 137.168C142.674 136.864 142.934 136.648 143.262 136.52C143.598 136.384 143.982 136.316 144.414 136.316C144.862 136.316 145.234 136.356 145.53 136.436C145.826 136.508 146.082 136.608 146.298 136.736V136.028C146.298 135.564 146.162 135.224 145.89 135.008C145.618 134.792 145.23 134.684 144.726 134.684C144.406 134.684 144.066 134.732 143.706 134.828C143.354 134.916 143.05 135.06 142.794 135.26V134.396C143.042 134.236 143.374 134.116 143.79 134.036C144.206 133.948 144.61 133.904 145.002 133.904C145.658 133.904 146.182 134.064 146.574 134.384C146.974 134.704 147.174 135.184 147.174 135.824V138.728C147.174 139.152 147.046 139.468 146.79 139.676C146.542 139.884 146.214 140.02 145.806 140.084C145.406 140.148 144.974 140.18 144.51 140.18ZM143.07 138.224C143.07 138.52 143.15 138.756 143.31 138.932C143.478 139.108 143.686 139.232 143.934 139.304C144.19 139.376 144.45 139.412 144.714 139.412C145.234 139.412 145.626 139.376 145.89 139.304C146.162 139.224 146.298 139.048 146.298 138.776V137.432C146.098 137.336 145.854 137.256 145.566 137.192C145.278 137.128 144.97 137.096 144.642 137.096C144.138 137.096 143.75 137.192 143.478 137.384C143.206 137.576 143.07 137.856 143.07 138.224ZM149.091 140V134.492C149.187 134.452 149.371 134.384 149.643 134.288C149.923 134.192 150.255 134.104 150.639 134.024C151.031 133.944 151.435 133.904 151.851 133.904C151.915 133.904 151.979 133.912 152.043 133.928C152.107 133.944 152.171 133.96 152.235 133.976V134.744C151.819 134.696 151.427 134.696 151.059 134.744C150.691 134.792 150.323 134.848 149.955 134.912V140H149.091Z" fill="#9DA2AD"/>
</svg>
