<svg width="82" height="39" viewBox="0 0 82 39" fill="none" xmlns="http://www.w3.org/2000/svg">
<path d="M35.731 31.7138C34.1378 32.3766 32.427 32.7105 30.7015 32.6956C26.5457 32.6956 24.1024 30.3666 24.1024 25.8678V10.3243H22.3429V6.98082H24.1024V3.55572H32.859V6.98082H35.731V10.3243H32.859V25.4739C32.859 27.1068 33.1509 28.5356 34.5614 28.5356C34.9764 28.5342 35.3823 28.4138 35.731 28.1886V31.7056V31.7138ZM12.0023 10.3243H20.6875V8.97709C20.6875 2.76783 16.5439 0.0122375 10.3918 0.0122375C4.51525 0.0122375 0.0940628 3.30057 0.0940628 9.04648C0.0940628 19.8341 12.3044 17.4582 12.3044 24.7635C12.3044 26.6863 11.5451 27.3171 10.6347 27.3171C9.72434 27.3171 8.96502 26.6863 8.96502 24.7635V22.11H0.175715V23.3817C0.175715 29.8808 4.41727 32.7201 10.7572 32.7201C16.8174 32.7201 21.3386 29.348 21.3386 23.3123C21.3386 11.2938 8.78131 14.6271 8.78131 7.97283C8.78131 6.05004 9.56513 5.41931 10.3918 5.41931C11.2185 5.41931 12.0023 6.05004 12.0023 7.97283V10.3243ZM48.6006 14.8149C48.6006 12.5818 48.3495 10.9754 47.1411 10.9754C45.9328 10.9754 45.6797 12.5818 45.6797 14.8149V24.3778C45.6797 26.6088 45.9307 28.2152 47.1411 28.2152C48.3516 28.2152 48.6006 26.6088 48.6006 24.3778V14.8149ZM47.1371 6.49297C53.0769 6.49297 57.3552 9.8303 57.3552 17.4071V21.7834C57.3552 29.3603 53.0687 32.6976 47.1371 32.6976C41.2054 32.6976 36.9189 29.3603 36.9189 21.7834V17.4112C36.9189 9.83438 41.2054 6.49706 47.1371 6.49706V6.49297ZM71.7026 15.6987C71.7026 13.4677 71.4536 11.8592 70.2432 11.8592C69.0328 11.8592 68.7837 13.4677 68.7837 15.6987V23.5021C68.7837 25.7331 69.0348 27.3395 70.2432 27.3395C71.4516 27.3395 71.7026 25.7331 71.7026 23.5021V15.6987ZM73.9255 6.49706C78.067 6.49706 80.4572 9.83438 80.4572 17.4112V21.7855C80.4572 29.3644 78.0629 32.7017 73.9255 32.7017C71.9496 32.7017 69.9125 31.7178 68.7858 30.0094V38.5742H60.0291V6.98082H68.7899V9.1812C69.9166 7.47274 71.9537 6.48889 73.9295 6.48889L73.9255 6.49706ZM79.2774 7.88914C79.3576 8.03296 79.4755 8.15221 79.6183 8.2341C79.7976 8.33907 80.0067 8.38159 80.2128 8.355C80.4189 8.32842 80.6103 8.23423 80.7571 8.08718C80.9039 7.94014 80.9978 7.74855 81.0241 7.54243C81.0503 7.33632 81.0075 7.12731 80.9022 6.94816C80.8196 6.80791 80.7017 6.69173 80.5602 6.61116C80.4188 6.53059 80.2587 6.48844 80.0959 6.48889C79.9726 6.48862 79.8503 6.51273 79.7363 6.55982C79.6223 6.60691 79.5187 6.67606 79.4314 6.7633C79.3442 6.85054 79.275 6.95416 79.2279 7.0682C79.1808 7.18224 79.1567 7.30445 79.157 7.42783C79.1567 7.58941 79.1982 7.74833 79.2774 7.88914ZM79.3958 7.02164C79.4674 6.89969 79.5694 6.79841 79.6918 6.72771C79.8156 6.65546 79.9567 6.61807 80.1 6.61953C80.2437 6.61807 80.3849 6.65621 80.5083 6.72975C80.6914 6.83875 80.8247 7.01506 80.8796 7.22102C80.9346 7.42698 80.9068 7.64625 80.8022 7.83199C80.7301 7.95348 80.6282 8.05463 80.5062 8.12592C80.3519 8.20724 80.1755 8.237 80.003 8.21081C79.8306 8.18462 79.671 8.10386 79.5477 7.98038C79.4245 7.8569 79.344 7.69719 79.3182 7.52466C79.2923 7.35212 79.3224 7.17584 79.404 7.02164H79.3958ZM80.3838 6.95632C80.2944 6.89753 80.1883 6.86957 80.0816 6.87671H79.7959V7.97487H79.9551V7.54826H80.0959L80.3531 7.98711H80.5409L80.2572 7.50744C80.3222 7.48207 80.3793 7.43979 80.4225 7.38497C80.4648 7.32312 80.4841 7.24841 80.477 7.17384C80.4699 7.09926 80.4369 7.02952 80.3838 6.97673V6.95632ZM79.9551 7.05021H80.0674C80.1317 7.0453 80.1961 7.05875 80.2531 7.089C80.2735 7.10422 80.2896 7.12441 80.3 7.14763C80.3103 7.17086 80.3146 7.19634 80.3123 7.22167C80.3123 7.34618 80.2307 7.40742 80.0694 7.40742H79.9551V7.05021Z" fill="white"/>
</svg>
